<svg xmlns="http://www.w3.org/2000/svg" viewBox="0 0 200 200" role="img" aria-label="stander-php-dashboard logo">
  <defs>
    <linearGradient id="lb" x1="0" y1="0" x2="1" y2="1">
      <stop offset="0%" stop-color="#0d1117"/>
      <stop offset="100%" stop-color="#161b22"/>
    </linearGradient>
  </defs>
  <rect width="200" height="200" rx="32" fill="url(#lb)"/>
  <rect x="8" y="8" width="184" height="184" rx="26" fill="none" stroke="#3b5998" stroke-width="1.5" stroke-opacity="0.4"/>

  <!-- lock + grid mark -->
  <g transform="translate(40 40)" fill="none" stroke="#3b5998" stroke-width="6" stroke-linecap="round" stroke-linejoin="round">
    <rect x="0" y="32" width="64" height="48" rx="6" fill="#3b5998" fill-opacity="0.2"/>
    <path d="M10 32 V20 a22 22 0 0 1 44 0 V32"/>
    <circle cx="32" cy="56" r="5" fill="#3b5998"/>
  </g>
  <g transform="translate(120 60)" fill="#3b5998">
    <rect x="0" y="0" width="14" height="14" rx="2"/>
    <rect x="20" y="0" width="14" height="14" rx="2"/>
    <rect x="40" y="0" width="14" height="14" rx="2"/>
    <rect x="0" y="20" width="14" height="14" rx="2"/>
    <rect x="20" y="20" width="14" height="14" rx="2"/>
    <rect x="40" y="20" width="14" height="14" rx="2"/>
    <rect x="0" y="40" width="14" height="14" rx="2"/>
    <rect x="20" y="40" width="14" height="14" rx="2"/>
    <rect x="40" y="40" width="14" height="14" rx="2"/>
  </g>
</svg>
