<svg xmlns="http://www.w3.org/2000/svg" viewBox="0 0 800 500" role="img" aria-label="Admin panel mockup">
  <rect width="800" height="500" fill="#0d1117"/>
  <rect x="40" y="30" width="720" height="440" rx="10" fill="#161b22" stroke="#3b5998" stroke-opacity="0.5"/>
  <rect x="40" y="30" width="720" height="34" rx="10 10 0 0" fill="#21262d"/>
  <circle cx="60" cy="47" r="5" fill="#ff5f56"/>
  <circle cx="78" cy="47" r="5" fill="#ffbd2e"/>
  <circle cx="96" cy="47" r="5" fill="#27c93f"/>
  <rect x="200" y="38" width="320" height="18" rx="4" fill="#0d1117"/>
  <text x="360" y="51" text-anchor="middle" fill="#8b949e" font-family="ui-monospace,monospace" font-size="11">localhost:8000/adminpanel.php</text>

  <g transform="translate(60 80)" font-family="Arial,sans-serif">
    <a href="#">
      <rect x="0" y="0" width="170" height="28" rx="4" fill="none" stroke="#3b5998"/>
      <text x="85" y="19" text-anchor="middle" fill="#3b5998" font-size="12">← Back to Dashboard</text>
    </a>
    <text x="0" y="80" fill="#333" font-weight="700" font-size="22">User Management</text>
  </g>

  <g transform="translate(60 180)">
    <rect width="680" height="36" fill="#f5f5f5"/>
    <g font-family="Arial,sans-serif" font-size="12" font-weight="700" fill="#333">
      <text x="20" y="22">ID</text>
      <text x="80" y="22">Username</text>
      <text x="180" y="22">Email</text>
      <text x="340" y="22">Role</text>
      <text x="400" y="22">City</text>
      <text x="480" y="22">Country</text>
      <text x="600" y="22">Actions</text>
    </g>
  </g>

  <g transform="translate(60 216)" font-family="Arial,sans-serif" font-size="12" fill="#333">
    <rect width="680" height="36" fill="#fafafa" stroke="#eee"/>
    <text x="20" y="22">1</text>
    <text x="80" y="22">anas_admin</text>
    <text x="180" y="22">anas@example.com</text>
    <text x="340" y="22" fill="#3b5998" font-weight="700">admin</text>
    <text x="400" y="22">Riyadh</text>
    <text x="480" y="22">Saudi Arabia</text>
    <rect x="595" y="6" width="40" height="22" rx="3" fill="#4CAF50"/>
    <text x="615" y="20" text-anchor="middle" fill="#fff" font-size="11">Edit</text>
    <rect x="638" y="6" width="40" height="22" rx="3" fill="#f44336"/>
    <text x="658" y="20" text-anchor="middle" fill="#fff" font-size="11">Del</text>
  </g>

  <g transform="translate(60 254)" font-family="Arial,sans-serif" font-size="12" fill="#333">
    <rect width="680" height="36" fill="#ffffff" stroke="#eee"/>
    <text x="20" y="22">2</text>
    <text x="80" y="22">fatima_user</text>
    <text x="180" y="22">fatima@example.com</text>
    <text x="340" y="22">user</text>
    <text x="400" y="22">Jeddah</text>
    <text x="480" y="22">Saudi Arabia</text>
    <rect x="595" y="6" width="40" height="22" rx="3" fill="#4CAF50"/>
    <text x="615" y="20" text-anchor="middle" fill="#fff" font-size="11">Edit</text>
    <rect x="638" y="6" width="40" height="22" rx="3" fill="#f44336"/>
    <text x="658" y="20" text-anchor="middle" fill="#fff" font-size="11">Del</text>
  </g>

  <g transform="translate(60 292)" font-family="Arial,sans-serif" font-size="12" fill="#333">
    <rect width="680" height="36" fill="#fafafa" stroke="#eee"/>
    <text x="20" y="22">3</text>
    <text x="80" y="22">khalid_demo</text>
    <text x="180" y="22">khalid@example.com</text>
    <text x="340" y="22">user</text>
    <text x="400" y="22">Dammam</text>
    <text x="480" y="22">Saudi Arabia</text>
    <rect x="595" y="6" width="40" height="22" rx="3" fill="#4CAF50"/>
    <text x="615" y="20" text-anchor="middle" fill="#fff" font-size="11">Edit</text>
    <rect x="638" y="6" width="40" height="22" rx="3" fill="#f44336"/>
    <text x="658" y="20" text-anchor="middle" fill="#fff" font-size="11">Del</text>
  </g>
</svg>
